<svg display="none" xmlns="http://www.w3.org/2000/svg">
	<!-- social icon -->
	<symbol id="vk" viewBox="0 0 32 32">
		<path d="M29 0h-26c-1.65 0-3 1.35-3 3v26c0 1.65 1.35 3 3 3h26c1.65 0 3-1.35 3-3v-26c0-1.65-1.35-3-3-3zM25.919 22.4l-2.925 0.044c0 0-0.631 0.125-1.456-0.444-1.094-0.75-2.125-2.706-2.931-2.45-0.813 0.256-0.788 2.012-0.788 2.012s0.006 0.375-0.181 0.575c-0.2 0.219-0.6 0.262-0.6 0.262h-1.306c0 0-2.888 0.175-5.431-2.475-2.775-2.887-5.225-8.619-5.225-8.619s-0.144-0.375 0.013-0.556c0.175-0.206 0.644-0.219 0.644-0.219l3.131-0.019c0 0 0.294 0.050 0.506 0.206 0.175 0.125 0.269 0.369 0.269 0.369s0.506 1.281 1.175 2.438c1.306 2.256 1.919 2.75 2.362 2.513 0.644-0.35 0.45-3.194 0.45-3.194s0.012-1.031-0.325-1.488c-0.262-0.356-0.756-0.463-0.969-0.488-0.175-0.025 0.113-0.431 0.488-0.619 0.563-0.275 1.556-0.294 2.731-0.281 0.913 0.006 1.181 0.069 1.538 0.15 1.081 0.262 0.712 1.269 0.712 3.681 0 0.775-0.137 1.863 0.419 2.219 0.238 0.156 0.825 0.025 2.294-2.469 0.694-1.181 1.219-2.569 1.219-2.569s0.113-0.25 0.288-0.356c0.181-0.106 0.425-0.075 0.425-0.075l3.294-0.019c0 0 0.988-0.119 1.15 0.331 0.169 0.469-0.369 1.563-1.712 3.356-2.206 2.944-2.456 2.669-0.619 4.369 1.75 1.625 2.113 2.419 2.175 2.519 0.712 1.2-0.813 1.294-0.813 1.294z">
		</path>
	</symbol>

	<symbol id="instagram" viewBox="0 0 32 32"> 
		<path d="M16 2.881c4.275 0 4.781 0.019 6.462 0.094 1.563 0.069 2.406 0.331 2.969 0.55 0.744 0.288 1.281 0.638 1.837 1.194 0.563 0.563 0.906 1.094 1.2 1.838 0.219 0.563 0.481 1.412 0.55 2.969 0.075 1.688 0.094 2.194 0.094 6.463s-0.019 4.781-0.094 6.463c-0.069 1.563-0.331 2.406-0.55 2.969-0.288 0.744-0.637 1.281-1.194 1.837-0.563 0.563-1.094 0.906-1.837 1.2-0.563 0.219-1.413 0.481-2.969 0.55-1.688 0.075-2.194 0.094-6.463 0.094s-4.781-0.019-6.463-0.094c-1.563-0.069-2.406-0.331-2.969-0.55-0.744-0.288-1.281-0.637-1.838-1.194-0.563-0.563-0.906-1.094-1.2-1.837-0.219-0.563-0.481-1.413-0.55-2.969-0.075-1.688-0.094-2.194-0.094-6.463s0.019-4.781 0.094-6.463c0.069-1.563 0.331-2.406 0.55-2.969 0.288-0.744 0.638-1.281 1.194-1.838 0.563-0.563 1.094-0.906 1.838-1.2 0.563-0.219 1.412-0.481 2.969-0.55 1.681-0.075 2.188-0.094 6.463-0.094zM16 0c-4.344 0-4.887 0.019-6.594 0.094-1.7 0.075-2.869 0.35-3.881 0.744-1.056 0.412-1.95 0.956-2.837 1.85-0.894 0.888-1.438 1.781-1.85 2.831-0.394 1.019-0.669 2.181-0.744 3.881-0.075 1.713-0.094 2.256-0.094 6.6s0.019 4.887 0.094 6.594c0.075 1.7 0.35 2.869 0.744 3.881 0.413 1.056 0.956 1.95 1.85 2.837 0.887 0.887 1.781 1.438 2.831 1.844 1.019 0.394 2.181 0.669 3.881 0.744 1.706 0.075 2.25 0.094 6.594 0.094s4.888-0.019 6.594-0.094c1.7-0.075 2.869-0.35 3.881-0.744 1.050-0.406 1.944-0.956 2.831-1.844s1.438-1.781 1.844-2.831c0.394-1.019 0.669-2.181 0.744-3.881 0.075-1.706 0.094-2.25 0.094-6.594s-0.019-4.887-0.094-6.594c-0.075-1.7-0.35-2.869-0.744-3.881-0.394-1.063-0.938-1.956-1.831-2.844-0.887-0.887-1.781-1.438-2.831-1.844-1.019-0.394-2.181-0.669-3.881-0.744-1.712-0.081-2.256-0.1-6.6-0.1v0z"></path>
		<path d="M16 7.781c-4.537 0-8.219 3.681-8.219 8.219s3.681 8.219 8.219 8.219 8.219-3.681 8.219-8.219c0-4.537-3.681-8.219-8.219-8.219zM16 21.331c-2.944 0-5.331-2.387-5.331-5.331s2.387-5.331 5.331-5.331c2.944 0 5.331 2.387 5.331 5.331s-2.387 5.331-5.331 5.331z"></path>
		<path d="M26.462 7.456c0 1.060-0.859 1.919-1.919 1.919s-1.919-0.859-1.919-1.919c0-1.060 0.859-1.919 1.919-1.919s1.919 0.859 1.919 1.919z"></path>
	</symbol>	

	<symbol id="github" viewBox="0 0 32 32">
		<path d="M16 0.395c-8.836 0-16 7.163-16 16 0 7.069 4.585 13.067 10.942 15.182 0.8 0.148 1.094-0.347 1.094-0.77 0-0.381-0.015-1.642-0.022-2.979-4.452 0.968-5.391-1.888-5.391-1.888-0.728-1.849-1.776-2.341-1.776-2.341-1.452-0.993 0.11-0.973 0.11-0.973 1.606 0.113 2.452 1.649 2.452 1.649 1.427 2.446 3.743 1.739 4.656 1.33 0.143-1.034 0.558-1.74 1.016-2.14-3.554-0.404-7.29-1.777-7.29-7.907 0-1.747 0.625-3.174 1.649-4.295-0.166-0.403-0.714-2.030 0.155-4.234 0 0 1.344-0.43 4.401 1.64 1.276-0.355 2.645-0.532 4.005-0.539 1.359 0.006 2.729 0.184 4.008 0.539 3.054-2.070 4.395-1.64 4.395-1.64 0.871 2.204 0.323 3.831 0.157 4.234 1.026 1.12 1.647 2.548 1.647 4.295 0 6.145-3.743 7.498-7.306 7.895 0.574 0.497 1.085 1.47 1.085 2.963 0 2.141-0.019 3.864-0.019 4.391 0 0.426 0.288 0.925 1.099 0.768 6.354-2.118 10.933-8.113 10.933-15.18 0-8.837-7.164-16-16-16z"></path>
	</symbol>

	<symbol id="facebook" viewBox="0 0 32 32">
		<path d="M29 0h-26c-1.65 0-3 1.35-3 3v26c0 1.65 1.35 3 3 3h13v-14h-4v-4h4v-2c0-3.306 2.694-6 6-6h4v4h-4c-1.1 0-2 0.9-2 2v2h6l-1 4h-5v14h9c1.65 0 3-1.35 3-3v-26c0-1.65-1.35-3-3-3z"></path>
	</symbol>	

	<symbol id="mobile" viewBox="0 0 32 32">
		<path d="M23 0h-14c-1.65 0-3 1.35-3 3v26c0 1.65 1.35 3 3 3h14c1.65 0 3-1.35 3-3v-26c0-1.65-1.35-3-3-3zM12 1.5h8v1h-8v-1zM16 30c-1.105 0-2-0.895-2-2s0.895-2 2-2 2 0.895 2 2-0.895 2-2 2zM24 24h-16v-20h16v20z"></path>
	</symbol>
	<!-- //social icon -->

	<!-- card icons -->	
	<symbol id="imposition" viewBox="0 0 522.468 522.469">
		<g>
		<path d="M325.762,70.513l-17.706-4.854c-2.279-0.76-4.524-0.521-6.707,0.715c-2.19,1.237-3.669,3.094-4.429,5.568L190.426,440.53
			c-0.76,2.475-0.522,4.809,0.715,6.995c1.237,2.19,3.09,3.665,5.568,4.425l17.701,4.856c2.284,0.766,4.521,0.526,6.71-0.712
			c2.19-1.243,3.666-3.094,4.425-5.564L332.042,81.936c0.759-2.474,0.523-4.808-0.716-6.999
			C330.088,72.747,328.237,71.272,325.762,70.513z"/>
		<path d="M166.167,142.465c0-2.474-0.953-4.665-2.856-6.567l-14.277-14.276c-1.903-1.903-4.093-2.857-6.567-2.857
			s-4.665,0.955-6.567,2.857L2.856,254.666C0.95,256.569,0,258.759,0,261.233c0,2.474,0.953,4.664,2.856,6.566l133.043,133.044
			c1.902,1.906,4.089,2.854,6.567,2.854s4.665-0.951,6.567-2.854l14.277-14.268c1.903-1.902,2.856-4.093,2.856-6.57
			c0-2.471-0.953-4.661-2.856-6.563L51.107,261.233l112.204-112.201C165.217,147.13,166.167,144.939,166.167,142.465z"/>
		<path d="M519.614,254.663L386.567,121.619c-1.902-1.902-4.093-2.857-6.563-2.857c-2.478,0-4.661,0.955-6.57,2.857l-14.271,14.275
			c-1.902,1.903-2.851,4.09-2.851,6.567s0.948,4.665,2.851,6.567l112.206,112.204L359.163,373.442
			c-1.902,1.902-2.851,4.093-2.851,6.563c0,2.478,0.948,4.668,2.851,6.57l14.271,14.268c1.909,1.906,4.093,2.854,6.57,2.854
			c2.471,0,4.661-0.951,6.563-2.854L519.614,267.8c1.903-1.902,2.854-4.096,2.854-6.57
			C522.468,258.755,521.517,256.565,519.614,254.663z"/>
	</g>
	</symbol>

	<symbol id="programming" viewBox="-1 0 496 496">
		<path d="m405.121094 128v-104h-257.136719c-3.578125-13.769531-16-24-30.863281-24-17.648438 0-32 14.351562-32 32 0 14.871094 10.238281 27.289062 24 30.863281v37.199219l-109.121094 83.9375 109.121094 83.9375v36.0625h-56v80h56v49.136719c-13.761719 3.574219-24 15.992187-24 30.863281 0 17.648438 14.351562 32 32 32 17.648437 0 32-14.351562 32-32 0-14.871094-10.242188-27.289062-24-30.863281v-49.136719h56v-80h-56v-36.0625l98.71875-75.9375h77.28125v48h192v-112zm-272 336c0 8.824219-7.175782 16-16 16-8.824219 0-16-7.175781-16-16s7.175781-16 16-16c8.824218 0 16 7.175781 16 16zm32-96h-96v-48h96zm-64-336c0-8.824219 7.175781-16 16-16 8.824218 0 16 7.175781 16 16s-7.175782 16-16 16c-8.824219 0-16-7.175781-16-16zm16 221.902344-90.882813-69.902344 90.882813-69.902344 90.878906 69.902344zm106.71875-77.902344-98.71875-75.9375v-37.199219c11.191406-2.910156 19.949218-11.671875 22.863281-22.863281h241.136719v88h-88v48zm253.28125 48h-160v-80h160zm0 0"/><path d="m333.121094 160h128v16h-128zm0 0"/><path d="m333.121094 192h112v16h-112zm0 0"/><path d="m213.121094 440h256v-144h-256zm16-128h224v112h-224zm0 0"/><path d="m245.121094 328h16v16h-16zm0 0"/><path d="m277.121094 328h160v16h-160zm0 0"/><path d="m277.121094 360h160v16h-160zm0 0"/><path d="m245.121094 360h16v16h-16zm0 0"/><path d="m245.121094 392h16v16h-16zm0 0"/><path d="m277.121094 392h160v16h-160zm0 0"/>
	</symbol>

	<symbol id="frameworks" viewBox="0 0 512 512">
		<path d="M310.219,112.581c0-6.43-0.74-12.682-2.137-18.684l17.651-14.34l-20.211-35.009l-21.268,8.124
			c-9.086-8.518-20.109-14.99-32.339-18.691l-3.592-22.457h-40.425l-3.592,22.457c-12.232,3.699-23.255,10.173-32.339,18.691
			l-21.265-8.124l-20.213,35.009l17.654,14.34c-1.397,6.002-2.137,12.253-2.137,18.684s0.74,12.682,2.137,18.684l-17.654,14.34
			l20.213,35.009l21.265-8.124c9.086,8.518,20.109,14.993,32.339,18.692l3.592,22.456h40.425l3.592-22.456
			c12.232-3.698,23.255-10.174,32.339-18.692l21.268,8.124l20.211-35.009l-17.651-14.34
			C309.479,125.263,310.219,119.011,310.219,112.581z M228.112,154.491c-23.147,0-41.91-18.765-41.91-41.91
			c0-23.146,18.763-41.91,41.91-41.91c23.146,0,41.91,18.765,41.91,41.91C270.022,135.726,251.257,154.491,228.112,154.491z"/>

		<path d="M494.1,291.371c0-7.419-0.854-14.634-2.466-21.559L512,253.266l-23.32-40.396l-24.537,9.375
			c-10.486-9.828-23.201-17.296-37.317-21.567l-4.145-25.912h-46.645l-4.145,25.912c-14.111,4.271-26.831,11.738-37.313,21.567
			l-24.537-9.375l-23.323,40.396l20.368,16.546c-1.612,6.925-2.466,14.139-2.466,21.559c0,7.418,0.852,14.634,2.466,21.557
			l-20.368,16.548l23.323,40.394l24.537-9.374c10.482,9.828,23.201,17.299,37.313,21.567l4.145,25.912h46.645l4.145-25.912
			c14.115-4.268,26.831-11.738,37.317-21.567l24.537,9.374L512,329.476l-20.366-16.548C493.245,306.004,494.1,298.789,494.1,291.371
			z M399.359,347.251c-30.863,0-55.88-25.018-55.88-55.88c0-30.863,25.018-55.88,55.88-55.88c30.861,0,55.88,25.019,55.88,55.88
			C455.24,322.233,430.221,347.251,399.359,347.251z"/>

		<path d="M248.856,360.553c0-8.899-1.023-17.558-2.957-25.87l24.441-19.856l-27.986-48.471l-29.448,11.25
			c-12.58-11.795-27.842-20.758-44.777-25.881l-4.975-31.095h-55.97l-4.975,31.095c-16.935,5.123-32.2,14.086-44.78,25.881
			l-29.445-11.25L0,314.829l24.441,19.856c-1.933,8.311-2.96,16.969-2.96,25.87s1.027,17.559,2.96,25.871L0,406.28l27.985,48.471
			l29.445-11.25c12.58,11.795,27.845,20.762,44.78,25.881l4.975,31.095h55.971l4.975-31.095
			c16.935-5.119,32.197-14.086,44.777-25.881l29.447,11.25l27.985-48.471l-24.441-19.856
			C247.833,378.114,248.856,369.455,248.856,360.553z M135.169,437.39c-42.434,0-76.835-34.4-76.835-76.835
			s34.401-76.835,76.835-76.835c42.435,0,76.835,34.4,76.835,76.835C212.004,402.99,177.604,437.39,135.169,437.39z"/>
	</symbol>
	<!-- //card icons -->	
</svg>
