<svg display="none" xmlns="http://www.w3.org/2000/svg"> 
	<!-- social icon -->
	<symbol id="vk" viewBox="0 0 32 32">
		<path d="M29 0h-26c-1.65 0-3 1.35-3 3v26c0 1.65 1.35 3 3 3h26c1.65 0 3-1.35 3-3v-26c0-1.65-1.35-3-3-3zM25.919 22.4l-2.925 0.044c0 0-0.631 0.125-1.456-0.444-1.094-0.75-2.125-2.706-2.931-2.45-0.813 0.256-0.788 2.012-0.788 2.012s0.006 0.375-0.181 0.575c-0.2 0.219-0.6 0.262-0.6 0.262h-1.306c0 0-2.888 0.175-5.431-2.475-2.775-2.887-5.225-8.619-5.225-8.619s-0.144-0.375 0.013-0.556c0.175-0.206 0.644-0.219 0.644-0.219l3.131-0.019c0 0 0.294 0.050 0.506 0.206 0.175 0.125 0.269 0.369 0.269 0.369s0.506 1.281 1.175 2.438c1.306 2.256 1.919 2.75 2.362 2.513 0.644-0.35 0.45-3.194 0.45-3.194s0.012-1.031-0.325-1.488c-0.262-0.356-0.756-0.463-0.969-0.488-0.175-0.025 0.113-0.431 0.488-0.619 0.563-0.275 1.556-0.294 2.731-0.281 0.913 0.006 1.181 0.069 1.538 0.15 1.081 0.262 0.712 1.269 0.712 3.681 0 0.775-0.137 1.863 0.419 2.219 0.238 0.156 0.825 0.025 2.294-2.469 0.694-1.181 1.219-2.569 1.219-2.569s0.113-0.25 0.288-0.356c0.181-0.106 0.425-0.075 0.425-0.075l3.294-0.019c0 0 0.988-0.119 1.15 0.331 0.169 0.469-0.369 1.563-1.712 3.356-2.206 2.944-2.456 2.669-0.619 4.369 1.75 1.625 2.113 2.419 2.175 2.519 0.712 1.2-0.813 1.294-0.813 1.294z">
		</path>
	</symbol>

	<symbol id="instagram" viewBox="0 0 32 32"> 
		<path d="M16 2.881c4.275 0 4.781 0.019 6.462 0.094 1.563 0.069 2.406 0.331 2.969 0.55 0.744 0.288 1.281 0.638 1.837 1.194 0.563 0.563 0.906 1.094 1.2 1.838 0.219 0.563 0.481 1.412 0.55 2.969 0.075 1.688 0.094 2.194 0.094 6.463s-0.019 4.781-0.094 6.463c-0.069 1.563-0.331 2.406-0.55 2.969-0.288 0.744-0.637 1.281-1.194 1.837-0.563 0.563-1.094 0.906-1.837 1.2-0.563 0.219-1.413 0.481-2.969 0.55-1.688 0.075-2.194 0.094-6.463 0.094s-4.781-0.019-6.463-0.094c-1.563-0.069-2.406-0.331-2.969-0.55-0.744-0.288-1.281-0.637-1.838-1.194-0.563-0.563-0.906-1.094-1.2-1.837-0.219-0.563-0.481-1.413-0.55-2.969-0.075-1.688-0.094-2.194-0.094-6.463s0.019-4.781 0.094-6.463c0.069-1.563 0.331-2.406 0.55-2.969 0.288-0.744 0.638-1.281 1.194-1.838 0.563-0.563 1.094-0.906 1.838-1.2 0.563-0.219 1.412-0.481 2.969-0.55 1.681-0.075 2.188-0.094 6.463-0.094zM16 0c-4.344 0-4.887 0.019-6.594 0.094-1.7 0.075-2.869 0.35-3.881 0.744-1.056 0.412-1.95 0.956-2.837 1.85-0.894 0.888-1.438 1.781-1.85 2.831-0.394 1.019-0.669 2.181-0.744 3.881-0.075 1.713-0.094 2.256-0.094 6.6s0.019 4.887 0.094 6.594c0.075 1.7 0.35 2.869 0.744 3.881 0.413 1.056 0.956 1.95 1.85 2.837 0.887 0.887 1.781 1.438 2.831 1.844 1.019 0.394 2.181 0.669 3.881 0.744 1.706 0.075 2.25 0.094 6.594 0.094s4.888-0.019 6.594-0.094c1.7-0.075 2.869-0.35 3.881-0.744 1.050-0.406 1.944-0.956 2.831-1.844s1.438-1.781 1.844-2.831c0.394-1.019 0.669-2.181 0.744-3.881 0.075-1.706 0.094-2.25 0.094-6.594s-0.019-4.887-0.094-6.594c-0.075-1.7-0.35-2.869-0.744-3.881-0.394-1.063-0.938-1.956-1.831-2.844-0.887-0.887-1.781-1.438-2.831-1.844-1.019-0.394-2.181-0.669-3.881-0.744-1.712-0.081-2.256-0.1-6.6-0.1v0z"></path>
		<path d="M16 7.781c-4.537 0-8.219 3.681-8.219 8.219s3.681 8.219 8.219 8.219 8.219-3.681 8.219-8.219c0-4.537-3.681-8.219-8.219-8.219zM16 21.331c-2.944 0-5.331-2.387-5.331-5.331s2.387-5.331 5.331-5.331c2.944 0 5.331 2.387 5.331 5.331s-2.387 5.331-5.331 5.331z"></path>
		<path d="M26.462 7.456c0 1.060-0.859 1.919-1.919 1.919s-1.919-0.859-1.919-1.919c0-1.060 0.859-1.919 1.919-1.919s1.919 0.859 1.919 1.919z"></path>
	</symbol>	

	<symbol id="github" viewBox="0 0 32 32">
		<path d="M16 0.395c-8.836 0-16 7.163-16 16 0 7.069 4.585 13.067 10.942 15.182 0.8 0.148 1.094-0.347 1.094-0.77 0-0.381-0.015-1.642-0.022-2.979-4.452 0.968-5.391-1.888-5.391-1.888-0.728-1.849-1.776-2.341-1.776-2.341-1.452-0.993 0.11-0.973 0.11-0.973 1.606 0.113 2.452 1.649 2.452 1.649 1.427 2.446 3.743 1.739 4.656 1.33 0.143-1.034 0.558-1.74 1.016-2.14-3.554-0.404-7.29-1.777-7.29-7.907 0-1.747 0.625-3.174 1.649-4.295-0.166-0.403-0.714-2.030 0.155-4.234 0 0 1.344-0.43 4.401 1.64 1.276-0.355 2.645-0.532 4.005-0.539 1.359 0.006 2.729 0.184 4.008 0.539 3.054-2.070 4.395-1.64 4.395-1.64 0.871 2.204 0.323 3.831 0.157 4.234 1.026 1.12 1.647 2.548 1.647 4.295 0 6.145-3.743 7.498-7.306 7.895 0.574 0.497 1.085 1.47 1.085 2.963 0 2.141-0.019 3.864-0.019 4.391 0 0.426 0.288 0.925 1.099 0.768 6.354-2.118 10.933-8.113 10.933-15.18 0-8.837-7.164-16-16-16z"></path>
	</symbol>

	<symbol id="facebook" viewBox="0 0 32 32">
		<path d="M29 0h-26c-1.65 0-3 1.35-3 3v26c0 1.65 1.35 3 3 3h13v-14h-4v-4h4v-2c0-3.306 2.694-6 6-6h4v4h-4c-1.1 0-2 0.9-2 2v2h6l-1 4h-5v14h9c1.65 0 3-1.35 3-3v-26c0-1.65-1.35-3-3-3z"></path>
	</symbol>	

	<symbol id="mobile" viewBox="0 0 32 32">
		<path d="M23 0h-14c-1.65 0-3 1.35-3 3v26c0 1.65 1.35 3 3 3h14c1.65 0 3-1.35 3-3v-26c0-1.65-1.35-3-3-3zM12 1.5h8v1h-8v-1zM16 30c-1.105 0-2-0.895-2-2s0.895-2 2-2 2 0.895 2 2-0.895 2-2 2zM24 24h-16v-20h16v20z"></path>
	</symbol>
	<!-- //social icon -->

	<!-- card icons -->	
	<symbol id="imposition" viewBox="0 0 522.468 522.469" stroke="#000" stroke-dasharray="10px" stroke-dashoffset="0">
		<g>
		<path  d=" M325.762,70.513l-17.706-4.854c-2.279-0.76-4.524-0.521-6.707,0.715c-2.19,1.237-3.669,3.094-4.429,5.568L190.426,440.53
			c-0.76,2.475-0.522,4.809,0.715,6.995c1.237,2.19,3.09,3.665,5.568,4.425l17.701,4.856c2.284,0.766,4.521,0.526,6.71-0.712
			c2.19-1.243,3.666-3.094,4.425-5.564L332.042,81.936c0.759-2.474,0.523-4.808-0.716-6.999
			C330.088,72.747,328.237,71.272,325.762,70.513z"/>
		<path d="M166.167,142.465c0-2.474-0.953-4.665-2.856-6.567l-14.277-14.276c-1.903-1.903-4.093-2.857-6.567-2.857
			s-4.665,0.955-6.567,2.857L2.856,254.666C0.95,256.569,0,258.759,0,261.233c0,2.474,0.953,4.664,2.856,6.566l133.043,133.044
			c1.902,1.906,4.089,2.854,6.567,2.854s4.665-0.951,6.567-2.854l14.277-14.268c1.903-1.902,2.856-4.093,2.856-6.57
			c0-2.471-0.953-4.661-2.856-6.563L51.107,261.233l112.204-112.201C165.217,147.13,166.167,144.939,166.167,142.465z"/>
		<path d="M519.614,254.663L386.567,121.619c-1.902-1.902-4.093-2.857-6.563-2.857c-2.478,0-4.661,0.955-6.57,2.857l-14.271,14.275
			c-1.902,1.903-2.851,4.09-2.851,6.567s0.948,4.665,2.851,6.567l112.206,112.204L359.163,373.442
			c-1.902,1.902-2.851,4.093-2.851,6.563c0,2.478,0.948,4.668,2.851,6.57l14.271,14.268c1.909,1.906,4.093,2.854,6.57,2.854
			c2.471,0,4.661-0.951,6.563-2.854L519.614,267.8c1.903-1.902,2.854-4.096,2.854-6.57
			C522.468,258.755,521.517,256.565,519.614,254.663z"/>
	</g>
	</symbol>

	<symbol id="programming" viewBox="-1 0 496 496">
		<path d="m405.121094 128v-104h-257.136719c-3.578125-13.769531-16-24-30.863281-24-17.648438 0-32 14.351562-32 32 0 14.871094 10.238281 27.289062 24 30.863281v37.199219l-109.121094 83.9375 109.121094 83.9375v36.0625h-56v80h56v49.136719c-13.761719 3.574219-24 15.992187-24 30.863281 0 17.648438 14.351562 32 32 32 17.648437 0 32-14.351562 32-32 0-14.871094-10.242188-27.289062-24-30.863281v-49.136719h56v-80h-56v-36.0625l98.71875-75.9375h77.28125v48h192v-112zm-272 336c0 8.824219-7.175782 16-16 16-8.824219 0-16-7.175781-16-16s7.175781-16 16-16c8.824218 0 16 7.175781 16 16zm32-96h-96v-48h96zm-64-336c0-8.824219 7.175781-16 16-16 8.824218 0 16 7.175781 16 16s-7.175782 16-16 16c-8.824219 0-16-7.175781-16-16zm16 221.902344-90.882813-69.902344 90.882813-69.902344 90.878906 69.902344zm106.71875-77.902344-98.71875-75.9375v-37.199219c11.191406-2.910156 19.949218-11.671875 22.863281-22.863281h241.136719v88h-88v48zm253.28125 48h-160v-80h160zm0 0"/><path d="m333.121094 160h128v16h-128zm0 0"/><path d="m333.121094 192h112v16h-112zm0 0"/><path d="m213.121094 440h256v-144h-256zm16-128h224v112h-224zm0 0"/><path d="m245.121094 328h16v16h-16zm0 0"/><path d="m277.121094 328h160v16h-160zm0 0"/><path d="m277.121094 360h160v16h-160zm0 0"/><path d="m245.121094 360h16v16h-16zm0 0"/><path d="m245.121094 392h16v16h-16zm0 0"/><path d="m277.121094 392h160v16h-160zm0 0"/>
	</symbol>

	<symbol id="frameworks" viewBox="0 0 512 512">
		<path d="M310.219,112.581c0-6.43-0.74-12.682-2.137-18.684l17.651-14.34l-20.211-35.009l-21.268,8.124
			c-9.086-8.518-20.109-14.99-32.339-18.691l-3.592-22.457h-40.425l-3.592,22.457c-12.232,3.699-23.255,10.173-32.339,18.691
			l-21.265-8.124l-20.213,35.009l17.654,14.34c-1.397,6.002-2.137,12.253-2.137,18.684s0.74,12.682,2.137,18.684l-17.654,14.34
			l20.213,35.009l21.265-8.124c9.086,8.518,20.109,14.993,32.339,18.692l3.592,22.456h40.425l3.592-22.456
			c12.232-3.698,23.255-10.174,32.339-18.692l21.268,8.124l20.211-35.009l-17.651-14.34
			C309.479,125.263,310.219,119.011,310.219,112.581z M228.112,154.491c-23.147,0-41.91-18.765-41.91-41.91
			c0-23.146,18.763-41.91,41.91-41.91c23.146,0,41.91,18.765,41.91,41.91C270.022,135.726,251.257,154.491,228.112,154.491z"/>

		<path d="M494.1,291.371c0-7.419-0.854-14.634-2.466-21.559L512,253.266l-23.32-40.396l-24.537,9.375
			c-10.486-9.828-23.201-17.296-37.317-21.567l-4.145-25.912h-46.645l-4.145,25.912c-14.111,4.271-26.831,11.738-37.313,21.567
			l-24.537-9.375l-23.323,40.396l20.368,16.546c-1.612,6.925-2.466,14.139-2.466,21.559c0,7.418,0.852,14.634,2.466,21.557
			l-20.368,16.548l23.323,40.394l24.537-9.374c10.482,9.828,23.201,17.299,37.313,21.567l4.145,25.912h46.645l4.145-25.912
			c14.115-4.268,26.831-11.738,37.317-21.567l24.537,9.374L512,329.476l-20.366-16.548C493.245,306.004,494.1,298.789,494.1,291.371
			z M399.359,347.251c-30.863,0-55.88-25.018-55.88-55.88c0-30.863,25.018-55.88,55.88-55.88c30.861,0,55.88,25.019,55.88,55.88
			C455.24,322.233,430.221,347.251,399.359,347.251z"/>

		<path d="M248.856,360.553c0-8.899-1.023-17.558-2.957-25.87l24.441-19.856l-27.986-48.471l-29.448,11.25
			c-12.58-11.795-27.842-20.758-44.777-25.881l-4.975-31.095h-55.97l-4.975,31.095c-16.935,5.123-32.2,14.086-44.78,25.881
			l-29.445-11.25L0,314.829l24.441,19.856c-1.933,8.311-2.96,16.969-2.96,25.87s1.027,17.559,2.96,25.871L0,406.28l27.985,48.471
			l29.445-11.25c12.58,11.795,27.845,20.762,44.78,25.881l4.975,31.095h55.971l4.975-31.095
			c16.935-5.119,32.197-14.086,44.777-25.881l29.447,11.25l27.985-48.471l-24.441-19.856
			C247.833,378.114,248.856,369.455,248.856,360.553z M135.169,437.39c-42.434,0-76.835-34.4-76.835-76.835
			s34.401-76.835,76.835-76.835c42.435,0,76.835,34.4,76.835,76.835C212.004,402.99,177.604,437.39,135.169,437.39z"/>
	</symbol>

	<symbol id="design" viewBox="0 0 512 512">
		<path d="M432,100c-5.52,0-10,4.48-10,10s4.48,10,10,10c5.52,0,10-4.48,10-10S437.52,100,432,100z"/>
		<path d="M80,100c-5.52,0-10,4.48-10,10s4.48,10,10,10s10-4.48,10-10S85.52,100,80,100z"/>
		<path d="M502,220h-11.96c-3.738-28.804-12.77-56.253-26.944-81.705c-2.687-4.824-8.776-6.559-13.602-3.872
			c-4.825,2.687-6.559,8.777-3.872,13.602c12.508,22.463,20.646,46.628,24.252,71.975H462c-5.523,0-10,4.477-10,10v40
			c0,5.523,4.477,10,10,10h40c5.523,0,10-4.477,10-10v-40C512,224.477,507.523,220,502,220z M492,260h-20v-20h9.078
			c0.003,0,0.007,0,0.01,0c0.004,0,0.007,0,0.011,0H492V260z"/>
		<path d="M365.981,292.621c-0.006-0.155-0.01-0.31-0.023-0.465c-0.018-0.212-0.047-0.421-0.078-0.629
			c-0.019-0.128-0.034-0.256-0.059-0.384c-0.046-0.245-0.106-0.485-0.169-0.724c-0.024-0.091-0.043-0.182-0.07-0.272
			c-0.089-0.299-0.193-0.592-0.309-0.879c-0.013-0.031-0.022-0.064-0.035-0.095c-0.138-0.334-0.293-0.659-0.465-0.973
			l-99.998-182.996C263.022,101.996,259.657,100,256,100c-3.657,0-7.022,1.996-8.775,5.205l-99.998,182.996
			c-0.172,0.314-0.327,0.639-0.465,0.973c-0.013,0.031-0.022,0.063-0.035,0.095c-0.116,0.287-0.22,0.58-0.309,0.879
			c-0.027,0.09-0.046,0.181-0.07,0.272c-0.064,0.239-0.123,0.478-0.169,0.724c-0.024,0.127-0.039,0.255-0.059,0.384
			c-0.031,0.208-0.06,0.417-0.078,0.629c-0.013,0.155-0.018,0.31-0.023,0.465c-0.005,0.126-0.019,0.25-0.019,0.378
			c0,0.066,0.009,0.129,0.01,0.195c0.003,0.157,0.013,0.313,0.024,0.47c0.013,0.199,0.029,0.397,0.054,0.593
			c0.018,0.138,0.04,0.275,0.063,0.413c0.036,0.216,0.079,0.43,0.129,0.641c0.028,0.119,0.059,0.238,0.092,0.356
			c0.063,0.228,0.135,0.452,0.213,0.673c0.022,0.063,0.036,0.127,0.06,0.19l36.064,95.569c-2.893,1.434-5.569,3.339-7.92,5.689
			C169.121,403.457,166,410.99,166,419c0,13.036,8.361,24.152,20,28.28V502c0,5.523,4.477,10,10,10h120c5.523,0,10-4.477,10-10
			v-54.703c4.169-1.471,7.992-3.866,11.212-7.086C342.879,434.543,346,427.01,346,419c0-11.773-6.819-21.978-16.713-26.887
			l36.069-95.582c0.024-0.063,0.038-0.127,0.06-0.19c0.078-0.221,0.15-0.445,0.213-0.673c0.033-0.118,0.063-0.237,0.092-0.356
			c0.05-0.211,0.092-0.425,0.129-0.641c0.023-0.138,0.046-0.275,0.063-0.413c0.025-0.196,0.041-0.394,0.054-0.593
			c0.01-0.157,0.021-0.313,0.024-0.47c0.001-0.065,0.01-0.129,0.01-0.195C366,292.872,365.986,292.748,365.981,292.621z M256,283
			c5.514,0,10,4.486,10,10c0,5.514-4.486,10-10,10c-5.514,0-10-4.486-10-10C246,287.486,250.486,283,256,283z M306,492H206v-43h100
			V492z M323.069,426.068c-1.89,1.891-4.401,2.932-7.069,2.932H196c-5.514,0-10-4.486-10-10c0-2.668,1.041-5.179,2.931-7.068
			c1.891-1.891,4.401-2.932,7.069-2.932h119.933c0.022,0,0.044,0.003,0.066,0.003c0.011,0,0.023-0.001,0.034-0.001
			c5.499,0.018,9.968,4.495,9.968,9.998C326,421.668,324.959,424.179,323.069,426.068z M309.085,389h-106.17l-32.453-86H196
			c5.523,0,10-4.477,10-10s-4.477-10-10-10h-23.14L246,149.154V264.72c-11.639,4.128-20,15.243-20,28.28c0,16.542,13.458,30,30,30
			s30-13.458,30-30c0-13.036-8.361-24.152-20-28.28V149.154L339.14,283H316c-5.523,0-10,4.477-10,10s4.477,10,10,10h25.538
			L309.085,389z"/>
		<path d="M62.505,134.423c-4.826-2.688-10.916-0.954-13.602,3.872C34.73,163.747,25.697,191.196,21.96,220H10
			c-5.523,0-10,4.477-10,10v40c0,5.523,4.477,10,10,10h40c5.523,0,10-4.477,10-10v-40c0-5.523-4.477-10-10-10h-7.875
			c3.607-25.347,11.744-49.512,24.252-71.975C69.064,143.2,67.331,137.11,62.505,134.423z M40,260H20v-20h10.901
			c0.004,0,0.007,0,0.011,0c0.003,0,0.007,0,0.01,0H40V260z"/>
		<path d="M482,0c-13.036,0-24.152,8.361-28.28,20H286V10c0-5.523-4.477-10-10-10h-40c-5.523,0-10,4.477-10,10v10H58.28
			C54.152,8.361,43.036,0,30,0C13.458,0,0,13.458,0,30s13.458,30,30,30c13.036,0,24.152-8.361,28.28-20h100.534
			c-21.329,8.925-40.889,20.511-56.989,34.084c-4.223,3.56-4.76,9.869-1.2,14.091c1.978,2.347,4.805,3.555,7.65,3.555
			c2.276,0,4.564-0.772,6.44-2.354C143.407,65.188,184.353,47.913,226,42.119V50c0,5.523,4.477,10,10,10h40c5.523,0,10-4.477,10-10
			v-7.881c41.647,5.794,82.593,23.069,111.285,47.256c1.876,1.582,4.164,2.355,6.44,2.354c2.846,0,5.673-1.208,7.65-3.555
			c3.561-4.221,3.023-10.53-1.2-14.09c-16.1-13.573-35.66-25.159-56.989-34.084H453.72c4.128,11.639,15.243,20,28.28,20
			c16.542,0,30-13.458,30-30S498.542,0,482,0z M30,40c-5.514,0-10-4.486-10-10s4.486-10,10-10s10,4.486,10,10S35.514,40,30,40z
			 M266,30v0.9V40h-20v-9.1V30V20h20V30z M482,40c-5.514,0-10-4.486-10-10s4.486-10,10-10c5.514,0,10,4.486,10,10S487.514,40,482,40
			z"/>
	</symbol>

	<symbol id="cms" viewBox="0 0 96.98 96.98">
		<path d="M49.16,51.833L37.694,85.152c3.425,1.004,7.046,1.558,10.798,1.558c4.449,0,8.719-0.77,12.689-2.167
			c-0.102-0.164-0.195-0.338-0.271-0.527L49.16,51.833z"/>
		<path d="M10.272,48.488c0,15.129,8.792,28.202,21.541,34.396l-18.23-49.949C11.463,37.688,10.272,42.948,10.272,48.488z"/>
		<path d="M74.289,46.56c0-4.723-1.695-7.993-3.149-10.541c-1.938-3.148-3.754-5.813-3.754-8.962c0-3.513,2.664-6.783,6.418-6.783
			c0.17,0,0.33,0.021,0.496,0.029c-6.798-6.227-15.856-10.031-25.807-10.031c-13.354,0-25.101,6.85-31.932,17.227
			c0.896,0.027,1.739,0.046,2.459,0.046c3.998,0,10.187-0.485,10.187-0.485c2.062-0.124,2.302,2.903,0.245,3.146
			c0,0-2.071,0.243-4.374,0.365l13.915,41.397l8.363-25.085L41.4,30.57c-2.058-0.122-4.007-0.365-4.007-0.365
			c-2.058-0.12-1.818-3.268,0.241-3.146c0,0,6.313,0.485,10.066,0.485c3.997,0,10.188-0.485,10.188-0.485
			c2.062-0.122,2.303,2.903,0.243,3.146c0,0-2.073,0.243-4.374,0.365L67.57,71.653l3.812-12.738
			C73.033,53.629,74.289,49.831,74.289,46.56z"/>
		<path d="M82.025,30.153c0.164,1.216,0.258,2.525,0.258,3.93c0,3.878-0.723,8.238-2.905,13.689L67.703,81.523
			c11.361-6.626,19.006-18.936,19.006-33.033C86.71,41.844,85.011,35.596,82.025,30.153z"/>
		<path d="M48.49,0C21.71,0,0.001,21.71,0.001,48.49S21.71,96.98,48.49,96.98s48.489-21.71,48.489-48.49S75.27,0,48.49,0z
			 M48.492,90.997c-23.44,0-42.507-19.067-42.507-42.509c0-23.438,19.066-42.505,42.507-42.505
			c23.437,0,42.503,19.068,42.503,42.505C90.996,71.928,71.928,90.997,48.492,90.997z"/>
	</symbol>

	<symbol id="analytics" viewBox="0 0 496 496">
		<path d="m472 112h-40v-104c0-4.414062-3.574219-8-8-8h-352c-4.425781 0-8 3.585938-8 8v104h-40c-13.230469 0-24 10.769531-24 24v240c0 13.230469 10.769531 24 24 24h160v32h-8c-30.871094 0-56 25.128906-56 56 0 4.425781 3.574219 8 8 8h240c4.425781 0 8-3.574219 8-8 0-30.871094-25.128906-56-56-56h-8v-32h160c13.230469 0 24-10.769531 24-24v-240c0-13.230469-10.769531-24-24-24zm-392-32h336v272h-336zm336-64v48h-336v-48zm-56.808594 464h-222.382812c3.71875-18.230469 19.871094-32 39.191406-32h144c19.320312 0 35.480469 13.769531 39.191406 32zm-63.191406-48h-96v-32h96zm184-56c0 4.414062-3.585938 8-8 8h-448c-4.414062 0-8-3.585938-8-8v-240c0-4.40625 3.585938-8 8-8h40v232c0 4.425781 3.574219 8 8 8h352c4.425781 0 8-3.574219 8-8v-232h40c4.414062 0 8 3.59375 8 8zm0 0"/><path d="m96 32h16v16h-16zm0 0"/><path d="m128 32h16v16h-16zm0 0"/><path d="m160 32h16v16h-16zm0 0"/><path d="m192 32h208v16h-208zm0 0"/><path d="m376 120c-10.414062 0-19.214844 6.710938-22.527344 16h-36.066406l-13.980469-34.976562c-1.273437-3.183594-4.472656-5.230469-7.882812-5.015626-3.4375.199219-6.359375 2.566407-7.261719 5.878907l-17.050781 62.503906-7.644531-22.933594c-1.089844-3.257812-4.136719-5.457031-7.585938-5.457031h-19.054688l-13.792968-27.574219c-1.390625-2.785156-4.175782-4.539062-7.390625-4.417969-3.121094.089844-5.890625 1.984376-7.121094 4.839844l-15.144531 35.320313-9.816406-34.367188c-.902344-3.167969-3.671876-5.464843-6.953126-5.769531-3.359374-.335938-6.421874 1.441406-7.894531 4.382812l-13.777343 27.585938h-12.527344c-3.3125-9.289062-12.113282-16-22.527344-16-13.230469 0-24 10.769531-24 24s10.769531 24 24 24c10.414062 0 19.214844-6.710938 22.527344-16h17.472656c3.03125 0 5.800781-1.710938 7.160156-4.425781l6.808594-13.605469 10.34375 36.222656c.925781 3.257813 3.816406 5.570313 7.183594 5.785156 3.488281.191407 6.519531-1.730468 7.855468-4.832031l17.199219-40.152343 8.289063 16.574218c1.359375 2.722656 4.128906 4.433594 7.160156 4.433594h18.230469l14.175781 42.527344c1.097656 3.28125 4.152344 5.472656 7.59375 5.472656h.214844c3.519531-.097656 6.570312-2.488281 7.503906-5.886719l17.722656-64.976562 7.132813 17.839843c1.21875 3.03125 4.152343 5.023438 7.425781 5.023438h41.472656c3.3125 9.289062 12.113282 16 22.527344 16 13.230469 0 24-10.769531 24-24s-10.769531-24-24-24zm-256 32c-4.414062 0-8-3.59375-8-8s3.585938-8 8-8 8 3.59375 8 8-3.585938 8-8 8zm256 0c-4.414062 0-8-3.59375-8-8s3.585938-8 8-8 8 3.59375 8 8-3.585938 8-8 8zm0 0"/><path d="m160 208c-35.289062 0-64 28.710938-64 64s28.710938 64 64 64 64-28.710938 64-64-28.710938-64-64-64zm47.28125 56h-39.28125v-39.28125c20.054688 3.394531 35.886719 19.226562 39.28125 39.28125zm-55.28125-39.28125v32.328125l-26.886719-17.917969c7.023438-7.441406 16.367188-12.632812 26.886719-14.410156zm8 95.28125c-26.472656 0-48-21.527344-48-48 0-6.976562 1.527344-13.59375 4.214844-19.574219l39.34375 26.230469.082031-.121094c1.269531.847656 2.710937 1.464844 4.359375 1.464844h47.28125c-3.832031 22.664062-23.546875 40-47.28125 40zm0 0"/><path d="m240 296h16v40h-16zm0 0"/><path d="m272 264h16v72h-16zm0 0"/><path d="m304 232h16v104h-16zm0 0"/><path d="m336 280h16v56h-16zm0 0"/><path d="m368 200h16v136h-16zm0 0"/>
	</symbol>
	<!-- //card icons -->	
</svg>
